<svg xmlns="http://www.w3.org/2000/svg" preserveAspectRatio="xMidYMin" viewBox="0 0 849 1473"><path fill="none" stroke="#000" d="M392.5 53.5s4-4.5 14.5.5 25.5 12 31.5 18 37 38.5 41 48 16 27.5 18 35 12.5 7 15.5 17 20 26 25 42 18 28 16 39c6.5 10.5 14.5 16 3 25-5.5-15.5-29-5.5-38.5 3.5S439 301 411.5 302s-68 5-81 1.5-15.5-8-35-9-26-1.5-38 1-14.25 5-14.75 1.75-2.25-11 9.5-24.25c2.25-21 19.75-63.25 24.75-73.25s14.25-36.5 17.5-42.25 3.75-12.25 9.25-23.75S326 87 350.25 71s18-13.25 28.5-16.5 13.75-1 13.75-1zM277.67 186l-65.34 22.67s-36 22-39.33 33.33c-3.33 11.33-22.67 62-23.33 63.33-.67 1.34-4.12 10.12-5.03 12.31-.91 2.18-1.46 15.63-2 18.36-.55 2.73-6.19 9.27-6.37 13.64-.18 4.36-6.54 18.91-5.82 31.63.73 12.73-2.95 67.23.05 71.73s2.83 13.67 9.17 15.67c-7 7.33-10 25-6 26-1 7-1 18.66 5.33 18 6.33-.67 10.67 9.33 10.67 9.33l6 7.33-2.42-39.33s113-3 112.75-3-9-3.75-10.5-4.5-6-4.5-13.75-3.75-8.25-2.25-11-2c1-7.5 0-9-1-10.25 6-4.5 3.5-15.75 3.25-19.75-4.25-6.5-10.5-18.25-14-18.25 11-.5 11.75-18.5 11.75-21.25S223 354 213 352c17 15 20 9 20 9s-2-23-7-34 10-24 10-24m10.33-2s39 3.67 48.67 12.67c9.67 9 39.33 14 47.33 13.33 8-.67 45.34 2.33 46.67 3 1.33.67 67-16 71.67-17.33 4.66-1.34 58.5-19.5 68.66-19.34 10.17.17 21.34-11 26-12m-167.42 56.12s-1.27 3.82 0 6.19c1.27 2.36.18 4.91.18 4.91s-3.09 11.09-1.45 12.36c1.63 1.27 1.81 2.36 5.09 2.73 3.27.36 5.82-1.82 6.18-3.46.36-1.63-1.27-11.09-1.09-11.27.18-.18-.18-5.09-.18-5.82 0-.73-.37-5.45-.37-5.45s-2.18-.91-2.54-.19c-.37.73 0 5.64 0 5.64l-4-.18s-.73-4.73-.73-4.91c0-.18-1.09-.55-1.09-.55zm.59 30.55s-2 49 3 51 1.5 34 2 37.5-1 26-1 26l4 .5s4.5-61.5 1.5-65.5-5-8-5.5-17.5-1-31.5-1-31.5l-3-.5zm212.75-126.5s-11.92 42.83-13.92 49.17c-2 6.33-6.66 21.33-9.33 28-2.67 6.66-5 11.33-4.67 21.66.34 10.34-5 35.34-5.66 37.34-.67 2-2 25-5.67 32.66-3.67 7.67-5.33 22.67-7.33 27.34-2 4.66.66 14.66-3.67 17.66s-8.67 6.34-14.67 8.67-11 6.67-20.33 7.33c-9.33.67-32 9.67-31 9.67s122-2 122-2 5 54 6 52 12.5-14.25 14.5-22.25S642 495 644 490s11-16 14-19 8-8 3-18-6-74.5-6-75-6.5-24.5-11-31-7.5-41-10.5-49.5-7-32-12.5-38.5-8.5-26.5-13.5-30-10.5-18.5-18.5-21.5-60.5-20-62.5-19.5M155 493.33l28.67 226H603l3.33-238-451.33 12zm-27 1.34c0 .33-13.5 2.5-16 3S75.5 522.5 75 523s-15 21.5-15.5 48.5-1 161.5-1 161.5 33 49 53 52.5c17.5-25.5 17-28 19-37.5s15-34 17-34 .5-13.5 1-16.5S155 692 156 684s1.5-52.5 1.5-53.5-3-68-3-68 1-22.5-2-27.5-9.5-19-20.5-23.5c-2.33-9.17-4-17.17-4-16.83zm-11.33 89.66C117 584.33 119 732 119 732l16.67-27.33s.66 1 1.66-8c1-9-.66-85-.66-85s.33-60 3-69.34c-7.67 6-16.67 12.34-16.34 12.34.34 0-5 3.66-5.66 12-.67 8.33-1.34 17.66-1 17.66zM628.33 524c1.34 0 34.67 13.33 36.67 15.33s17.33 29.34 16.67 66C681 642 688.33 718 688.33 718s-4 32.67-3.33 32.67c.67 0-43.33-34-42-34 1.33 0-9.33 15.33-8.67-51.34.67-66.66-8-107.33-8-107.33s.67-34 2-34zM699 798.67l51.33-42L747 593.33S740.33 544 730.33 536c-10-8-35.33-18.67-44.66-22.67-9.34-4-35.34-12-35.34-12s-13.5-2.58-16.83 3.42c-3.33 6-12 16.25-13.5 22.25s-3.25 7.75-4.75 17.25-1.25 109.25 1 113 7.75 13.25 8.5 18 2.25 28.75 2.92 34.08c.66 5.34 46.66 48 52.66 61.34 6 13.33 13.34 20.66 14 20 .67-.67 4.67 8 4.67 8zM112.33 788s.67 36 4 38.67M285 891.33s154.67 19.34 178.67 11.34m184.66-33.34s52-19.33 53.34-28.66c1.33-9.34.66-38.67-2.67-42M355 901.33c0-.66 2 62 2 62s2.67 4 5.33 4.67c2.67.67 4.67 86 4.67 86s-18.67 9.33-29.33 8.67C327 1062 299 1062 299 1062m185.33 8.67l-52.66-14-3.34-84 4-9.34-4.66-57.33m-131.34 210.67s28 .33 32.67 4.33c4.67 4-36 44.33-36 44.33m-.67 87.34l94-85.34S391 1202 395.67 1198c12 .67 24 0 25.33-4 1.33-4 .67-35.33.67-35.33l78.66 44.66M251.67 272.67H277s22 .66 29.33 2.66c7.34 2 28 2.67 36 3.34 8 .66 33.34 2.66 48.67 1.33 15.33-1.33 28.67-3.33 41.33-6 12.67-2.67 55.34-8 63.34-14s22.66-7.33 31.33-6c8.67 1.33 22.67-.67 27.33.67M130 1158c2-1-55 19-36-45 32-11 10-9 10-9s-5-38 17-36m504.5-345c-1.5 0 1.5 33 7.5 48s-4.5 22.5-9 63c25.5 13.5 18 37.5 16.5 69 12 7.5 19.5 13.5 27 18s22.5 33 4.5 66c12 24 3 127.5 3 130.5s4.5 175.5 6 181.5-1.5 48 16.5 84-178.5-1-178.5-1 4-104 8-122-30-108-28-134-18-64-6-98-38-16-6-98c-31-46-25-53-21-70-17-21-21-32-19-41-18-16-45-39-45-39s-45 4-44 4-45 39-48 42-4 17-15 19c0 17-2 48-16 47 18 27 23 53 19 69s-7 14-6 27 10 45 3 57 2 142-6 164 10 80 10 89 5 50 5 57 4 7 3 15-149.5 28-149.5 7 0-94.5-3-112.5S120 1008 123 982.5s-21-39-9-69S144 834 154.5 810s-4.5-78 6-85.5m-14-309.5s36 39 52 38.5m-47-62.5s36.5 54 49 49.5M183 399s19 35 26 34m-23.5-118.5S173 361.5 214 393m-21-118c12.5-.5 37-1.5 43.5-1.5m-60-24c6 7 28 37.5 29 48M254 234s-32.5 14-42.5 20M257 435s48 46 88 16m90-21s38 23 86 3m58 11c15.25 4 53.25 6.75 64.75 17m-74.5-9.75s39 3.75 41.5 9.25m-38.5-35s60.25-23.5 64.5-34.75m-54.5-17.25s41.5-24 42.25-30.75M548.25 219.5s37 6.5 43.25 10M188 918s64 308 80 323m-60 44s30 47 27 65m20-393s21 10.5 25.5 28.5m-19.5-153c0 1.5 12 46.5 12 46.5m312-13s30 32 40 38m-88-1s78 471 99 465M388.75 356.25c4.75-.5 7.25.5 7 .25.25 3.5-2.25 5.5-3.5 4.75s-4.5-1.75-3.5-5zm1.25-8l3-.25"/></svg>